<svg width="10" height="18" viewBox="0 0 10 18" fill="none" xmlns="http://www.w3.org/2000/svg">
<path fill-rule="evenodd" clip-rule="evenodd" d="M9.19252 1.05764C9.25072 1.1157 9.2969 1.18467 9.32841 1.2606C9.35992 1.33653 9.37613 1.41793 9.37613 1.50014C9.37613 1.58235 9.35992 1.66375 9.32841 1.73968C9.2969 1.81561 9.25072 1.88458 9.19252 1.94264L2.13377 9.00014L9.19252 16.0576C9.30988 16.175 9.37581 16.3342 9.37581 16.5001C9.37581 16.6661 9.30988 16.8253 9.19252 16.9426C9.07516 17.06 8.91599 17.1259 8.75002 17.1259C8.58405 17.1259 8.42488 17.06 8.30752 16.9426L0.807518 9.44264C0.749314 9.38458 0.703135 9.31561 0.671627 9.23968C0.640119 9.16375 0.623901 9.08235 0.623901 9.00014C0.623901 8.91793 0.640119 8.83653 0.671627 8.7606C0.703135 8.68467 0.749314 8.6157 0.807518 8.55764L8.30752 1.05764C8.36557 0.999437 8.43454 0.953258 8.51048 0.92175C8.58641 0.890242 8.66781 0.874023 8.75002 0.874023C8.83223 0.874023 8.91363 0.890242 8.98956 0.92175C9.06549 0.953258 9.13446 0.999437 9.19252 1.05764Z" fill="#212529"/>
</svg>
